<mxfile host="www.draw.io" modified="2020-01-12T16:11:42.535Z" agent="Mozilla/5.0 (Windows NT 6.1; Win64; x64) AppleWebKit/537.36 (KHTML, like Gecko) Chrome/76.0.3809.100 Safari/537.36" etag="a4kEaTVmLsZK8xkC85NH" version="12.5.1" type="github">
  <diagram id="MDIncXF-hEdaZWdSawOF" name="Page-1">
    <mxGraphModel dx="1002" dy="578" grid="0" gridSize="10" guides="1" tooltips="1" connect="1" arrows="1" fold="1" page="1" pageScale="1" pageWidth="827" pageHeight="1169" background="#808080" math="0" shadow="0">
      <root>
        <mxCell id="0"/>
        <mxCell id="1" parent="0"/>
        <mxCell id="6ViM9JjdiynAElRyoJt0-1" style="edgeStyle=orthogonalEdgeStyle;rounded=0;orthogonalLoop=1;jettySize=auto;html=1;" parent="1" source="6ViM9JjdiynAElRyoJt0-2" target="6ViM9JjdiynAElRyoJt0-4" edge="1">
          <mxGeometry relative="1" as="geometry"/>
        </mxCell>
        <mxCell id="6ViM9JjdiynAElRyoJt0-2" value="" style="html=1;verticalLabelPosition=bottom;align=center;labelBackgroundColor=#ffffff;verticalAlign=top;strokeWidth=2;strokeColor=#0080F0;shadow=0;dashed=0;shape=mxgraph.ios7.icons.user;" parent="1" vertex="1">
          <mxGeometry x="650" y="836" width="30" height="30" as="geometry"/>
        </mxCell>
        <mxCell id="6ViM9JjdiynAElRyoJt0-3" value="" style="edgeStyle=orthogonalEdgeStyle;rounded=0;orthogonalLoop=1;jettySize=auto;html=1;" parent="1" source="cDbeRY8NBW1ZkCHtCbrF-1" target="6ViM9JjdiynAElRyoJt0-11" edge="1">
          <mxGeometry relative="1" as="geometry"/>
        </mxCell>
        <mxCell id="6ViM9JjdiynAElRyoJt0-4" value="Amazon EC2" style="outlineConnect=0;fontColor=#232F3E;gradientColor=none;strokeColor=#ffffff;fillColor=#232F3E;dashed=0;verticalLabelPosition=middle;verticalAlign=bottom;align=center;html=1;whiteSpace=wrap;fontSize=10;fontStyle=1;spacing=3;shape=mxgraph.aws4.productIcon;prIcon=mxgraph.aws4.ec2;" parent="1" vertex="1">
          <mxGeometry x="787" y="800" width="84" height="102" as="geometry"/>
        </mxCell>
        <mxCell id="6ViM9JjdiynAElRyoJt0-5" value="" style="aspect=fixed;html=1;points=[];align=center;image;fontSize=12;image=img/lib/mscae/DNS.svg;" parent="1" vertex="1">
          <mxGeometry x="708" y="808" width="50" height="50" as="geometry"/>
        </mxCell>
        <mxCell id="6ViM9JjdiynAElRyoJt0-6" value="&lt;font color=&quot;#ffffff&quot;&gt;腾讯云COS S3&lt;br&gt;&lt;/font&gt;" style="verticalLabelPosition=bottom;html=1;verticalAlign=top;align=center;strokeColor=none;fillColor=#00BEF2;shape=mxgraph.azure.bitbucket_code_source;" parent="1" vertex="1">
          <mxGeometry x="1243" y="741.75" width="42.5" height="50" as="geometry"/>
        </mxCell>
        <mxCell id="6ViM9JjdiynAElRyoJt0-7" style="edgeStyle=orthogonalEdgeStyle;rounded=0;orthogonalLoop=1;jettySize=auto;html=1;entryX=0.07;entryY=0.5;entryDx=0;entryDy=0;entryPerimeter=0;" parent="1" source="6ViM9JjdiynAElRyoJt0-8" target="6ViM9JjdiynAElRyoJt0-6" edge="1">
          <mxGeometry relative="1" as="geometry"/>
        </mxCell>
        <mxCell id="6ViM9JjdiynAElRyoJt0-8" value="&lt;font color=&quot;#ffffff&quot;&gt;阿里云serveless&lt;br&gt;提供前端页面&lt;br&gt;&lt;/font&gt;" style="verticalLabelPosition=bottom;html=1;verticalAlign=top;align=center;strokeColor=none;fillColor=#00BEF2;shape=mxgraph.azure.cloud;" parent="1" vertex="1">
          <mxGeometry x="1119" y="750.5" width="50" height="32.5" as="geometry"/>
        </mxCell>
        <mxCell id="6ViM9JjdiynAElRyoJt0-9" style="edgeStyle=orthogonalEdgeStyle;rounded=0;orthogonalLoop=1;jettySize=auto;html=1;entryX=0.02;entryY=0.754;entryDx=0;entryDy=0;entryPerimeter=0;exitX=1;exitY=0.5;exitDx=0;exitDy=0;" parent="1" source="cDbeRY8NBW1ZkCHtCbrF-3" target="6ViM9JjdiynAElRyoJt0-8" edge="1">
          <mxGeometry relative="1" as="geometry"/>
        </mxCell>
        <mxCell id="6ViM9JjdiynAElRyoJt0-10" style="edgeStyle=orthogonalEdgeStyle;rounded=0;orthogonalLoop=1;jettySize=auto;html=1;entryX=0.04;entryY=0.738;entryDx=0;entryDy=0;entryPerimeter=0;" parent="1" source="cDbeRY8NBW1ZkCHtCbrF-3" target="6ViM9JjdiynAElRyoJt0-13" edge="1">
          <mxGeometry relative="1" as="geometry"/>
        </mxCell>
        <mxCell id="cDbeRY8NBW1ZkCHtCbrF-7" style="edgeStyle=orthogonalEdgeStyle;rounded=0;orthogonalLoop=1;jettySize=auto;html=1;exitX=1;exitY=0.5;exitDx=0;exitDy=0;exitPerimeter=0;entryX=0;entryY=0.5;entryDx=0;entryDy=0;" edge="1" parent="1" source="6ViM9JjdiynAElRyoJt0-11" target="cDbeRY8NBW1ZkCHtCbrF-3">
          <mxGeometry relative="1" as="geometry">
            <mxPoint x="999" y="945" as="targetPoint"/>
          </mxGeometry>
        </mxCell>
        <mxCell id="6ViM9JjdiynAElRyoJt0-11" value="" style="verticalLabelPosition=bottom;html=1;verticalAlign=top;align=center;strokeColor=none;fillColor=#00BEF2;shape=mxgraph.azure.server_rack;" parent="1" vertex="1">
          <mxGeometry x="943" y="826" width="50" height="50" as="geometry"/>
        </mxCell>
        <mxCell id="cDbeRY8NBW1ZkCHtCbrF-5" value="" style="verticalLabelPosition=bottom;html=1;verticalAlign=top;align=center;strokeColor=none;fillColor=#00BEF2;shape=mxgraph.azure.server_rack;" vertex="1" parent="1">
          <mxGeometry x="1073" y="826" width="50" height="50" as="geometry"/>
        </mxCell>
        <mxCell id="6ViM9JjdiynAElRyoJt0-12" style="edgeStyle=orthogonalEdgeStyle;rounded=0;orthogonalLoop=1;jettySize=auto;html=1;entryX=0;entryY=0.5;entryDx=0;entryDy=0;entryPerimeter=0;" parent="1" source="6ViM9JjdiynAElRyoJt0-13" target="6ViM9JjdiynAElRyoJt0-14" edge="1">
          <mxGeometry relative="1" as="geometry"/>
        </mxCell>
        <mxCell id="6ViM9JjdiynAElRyoJt0-37" value="" style="edgeStyle=orthogonalEdgeStyle;rounded=0;orthogonalLoop=1;jettySize=auto;html=1;" parent="1" source="6ViM9JjdiynAElRyoJt0-13" target="6ViM9JjdiynAElRyoJt0-32" edge="1">
          <mxGeometry relative="1" as="geometry"/>
        </mxCell>
        <mxCell id="6ViM9JjdiynAElRyoJt0-13" value="" style="verticalLabelPosition=bottom;html=1;verticalAlign=top;align=center;strokeColor=none;fillColor=#00BEF2;shape=mxgraph.azure.cloud;" parent="1" vertex="1">
          <mxGeometry x="1119" y="863" width="50" height="32.5" as="geometry"/>
        </mxCell>
        <mxCell id="6ViM9JjdiynAElRyoJt0-14" value="&lt;font color=&quot;#ffffff&quot;&gt;腾讯云DATABASE&lt;/font&gt;" style="verticalLabelPosition=bottom;html=1;verticalAlign=top;align=center;strokeColor=none;fillColor=#00BEF2;shape=mxgraph.azure.database;" parent="1" vertex="1">
          <mxGeometry x="1245.5" y="854.25" width="37.5" height="50" as="geometry"/>
        </mxCell>
        <mxCell id="6ViM9JjdiynAElRyoJt0-15" value="" style="edgeStyle=orthogonalEdgeStyle;rounded=0;orthogonalLoop=1;jettySize=auto;html=1;" parent="1" source="6ViM9JjdiynAElRyoJt0-16" target="6ViM9JjdiynAElRyoJt0-29" edge="1">
          <mxGeometry relative="1" as="geometry"/>
        </mxCell>
        <mxCell id="6ViM9JjdiynAElRyoJt0-16" value="" style="verticalLabelPosition=bottom;html=1;verticalAlign=top;align=center;strokeColor=none;fillColor=#00BEF2;shape=mxgraph.azure.visual_studio_online;" parent="1" vertex="1">
          <mxGeometry x="1169" y="563" width="50" height="37.5" as="geometry"/>
        </mxCell>
        <mxCell id="6ViM9JjdiynAElRyoJt0-17" value="" style="edgeStyle=orthogonalEdgeStyle;rounded=0;orthogonalLoop=1;jettySize=auto;html=1;" parent="1" source="6ViM9JjdiynAElRyoJt0-18" target="6ViM9JjdiynAElRyoJt0-32" edge="1">
          <mxGeometry relative="1" as="geometry"/>
        </mxCell>
        <mxCell id="6ViM9JjdiynAElRyoJt0-18" value="" style="verticalLabelPosition=bottom;html=1;verticalAlign=top;align=center;strokeColor=none;fillColor=#00BEF2;shape=mxgraph.azure.visual_studio_online;" parent="1" vertex="1">
          <mxGeometry x="1119" y="990" width="50" height="37.5" as="geometry"/>
        </mxCell>
        <mxCell id="6ViM9JjdiynAElRyoJt0-19" value="" style="edgeStyle=orthogonalEdgeStyle;rounded=0;orthogonalLoop=1;jettySize=auto;html=1;" parent="1" source="6ViM9JjdiynAElRyoJt0-20" target="6ViM9JjdiynAElRyoJt0-25" edge="1">
          <mxGeometry relative="1" as="geometry"/>
        </mxCell>
        <mxCell id="6ViM9JjdiynAElRyoJt0-20" value="" style="verticalLabelPosition=bottom;html=1;verticalAlign=top;align=center;strokeColor=none;fillColor=#00BEF2;shape=mxgraph.azure.visual_studio_online;" parent="1" vertex="1">
          <mxGeometry x="943" y="560" width="50" height="37.5" as="geometry"/>
        </mxCell>
        <mxCell id="6ViM9JjdiynAElRyoJt0-21" value="&lt;font color=&quot;#ffffff&quot;&gt;阿里云docker swarm集群&lt;/font&gt;" style="text;html=1;align=center;verticalAlign=middle;whiteSpace=wrap;rounded=0;" parent="1" vertex="1">
          <mxGeometry x="928" y="882.25" width="87" height="22" as="geometry"/>
        </mxCell>
        <mxCell id="6ViM9JjdiynAElRyoJt0-22" style="edgeStyle=orthogonalEdgeStyle;rounded=0;orthogonalLoop=1;jettySize=auto;html=1;" parent="1" source="6ViM9JjdiynAElRyoJt0-23" target="6ViM9JjdiynAElRyoJt0-11" edge="1">
          <mxGeometry relative="1" as="geometry"/>
        </mxCell>
        <mxCell id="6ViM9JjdiynAElRyoJt0-23" value="" style="aspect=fixed;html=1;points=[];align=center;image;fontSize=12;image=img/lib/mscae/Docker.svg;" parent="1" vertex="1">
          <mxGeometry x="943" y="756" width="50" height="41" as="geometry"/>
        </mxCell>
        <mxCell id="6ViM9JjdiynAElRyoJt0-24" style="edgeStyle=orthogonalEdgeStyle;rounded=0;orthogonalLoop=1;jettySize=auto;html=1;" parent="1" source="6ViM9JjdiynAElRyoJt0-25" target="6ViM9JjdiynAElRyoJt0-23" edge="1">
          <mxGeometry relative="1" as="geometry"/>
        </mxCell>
        <mxCell id="6ViM9JjdiynAElRyoJt0-25" value="" style="dashed=0;outlineConnect=0;html=1;align=center;labelPosition=center;verticalLabelPosition=bottom;verticalAlign=top;shape=mxgraph.weblogos.github" parent="1" vertex="1">
          <mxGeometry x="946.5" y="632" width="43" height="45" as="geometry"/>
        </mxCell>
        <mxCell id="6ViM9JjdiynAElRyoJt0-26" value="&lt;font color=&quot;#ffffff&quot;&gt;github Action自动化CI&lt;/font&gt;" style="text;html=1;strokeColor=none;fillColor=none;align=center;verticalAlign=middle;whiteSpace=wrap;rounded=0;" parent="1" vertex="1">
          <mxGeometry x="871" y="651.5" width="81" height="6" as="geometry"/>
        </mxCell>
        <mxCell id="6ViM9JjdiynAElRyoJt0-27" style="edgeStyle=orthogonalEdgeStyle;rounded=0;orthogonalLoop=1;jettySize=auto;html=1;entryX=0.58;entryY=0.05;entryDx=0;entryDy=0;entryPerimeter=0;" parent="1" source="6ViM9JjdiynAElRyoJt0-29" target="6ViM9JjdiynAElRyoJt0-8" edge="1">
          <mxGeometry relative="1" as="geometry"/>
        </mxCell>
        <mxCell id="6ViM9JjdiynAElRyoJt0-28" style="edgeStyle=orthogonalEdgeStyle;rounded=0;orthogonalLoop=1;jettySize=auto;html=1;" parent="1" source="6ViM9JjdiynAElRyoJt0-29" edge="1">
          <mxGeometry relative="1" as="geometry">
            <mxPoint x="1263" y="734" as="targetPoint"/>
          </mxGeometry>
        </mxCell>
        <mxCell id="6ViM9JjdiynAElRyoJt0-29" value="" style="dashed=0;outlineConnect=0;html=1;align=center;labelPosition=center;verticalLabelPosition=bottom;verticalAlign=top;shape=mxgraph.weblogos.github" parent="1" vertex="1">
          <mxGeometry x="1172.5" y="636" width="43" height="45" as="geometry"/>
        </mxCell>
        <mxCell id="6ViM9JjdiynAElRyoJt0-30" value="&lt;font color=&quot;#ffffff&quot;&gt;github Action自动化CI&lt;/font&gt;" style="text;html=1;strokeColor=none;fillColor=none;align=center;verticalAlign=middle;whiteSpace=wrap;rounded=0;" parent="1" vertex="1">
          <mxGeometry x="1097" y="655.5" width="81" height="6" as="geometry"/>
        </mxCell>
        <mxCell id="6ViM9JjdiynAElRyoJt0-32" value="" style="dashed=0;outlineConnect=0;html=1;align=center;labelPosition=center;verticalLabelPosition=bottom;verticalAlign=top;shape=mxgraph.weblogos.github" parent="1" vertex="1">
          <mxGeometry x="1122.5" y="920" width="43" height="45" as="geometry"/>
        </mxCell>
        <mxCell id="6ViM9JjdiynAElRyoJt0-33" value="&lt;font color=&quot;#ffffff&quot;&gt;github Action自动化CI&lt;/font&gt;" style="text;html=1;strokeColor=none;fillColor=none;align=center;verticalAlign=middle;whiteSpace=wrap;rounded=0;" parent="1" vertex="1">
          <mxGeometry x="1050.5" y="945.5" width="81" height="6" as="geometry"/>
        </mxCell>
        <mxCell id="6ViM9JjdiynAElRyoJt0-34" value="&lt;font color=&quot;#ffffff&quot;&gt;阿里云servelesss&lt;br&gt;提供后端API服务&lt;br&gt;&lt;/font&gt;" style="text;html=1;strokeColor=none;fillColor=none;align=center;verticalAlign=middle;whiteSpace=wrap;rounded=0;" parent="1" vertex="1">
          <mxGeometry x="1088" y="843" width="120" height="15" as="geometry"/>
        </mxCell>
        <mxCell id="cDbeRY8NBW1ZkCHtCbrF-1" value="" style="shape=image;html=1;verticalAlign=top;verticalLabelPosition=bottom;labelBackgroundColor=#ffffff;imageAspect=0;aspect=fixed;image=https://cdn4.iconfinder.com/data/icons/logos-brands-5/24/nginx-128.png" vertex="1" parent="1">
          <mxGeometry x="871" y="832" width="34" height="34" as="geometry"/>
        </mxCell>
        <mxCell id="cDbeRY8NBW1ZkCHtCbrF-3" value="" style="shape=image;html=1;verticalAlign=top;verticalLabelPosition=bottom;labelBackgroundColor=#ffffff;imageAspect=0;aspect=fixed;image=https://cdn4.iconfinder.com/data/icons/logos-brands-5/24/nginx-128.png" vertex="1" parent="1">
          <mxGeometry x="1021" y="834" width="34" height="34" as="geometry"/>
        </mxCell>
      </root>
    </mxGraphModel>
  </diagram>
</mxfile>
